<?xml version="1.0" encoding="UTF-8"?><svg id="Layer_2" xmlns="http://www.w3.org/2000/svg" viewBox="0 0 653.66 467.41"><defs><style>.cls-1,.cls-2{fill:none;}.cls-1,.cls-2,.cls-3{stroke:#000;stroke-miterlimit:10;stroke-width:4px;}.cls-4,.cls-3{fill:#fff;}.cls-2{stroke-dasharray:0 0 17 17;}</style></defs><g id="Layer_1-2"><rect class="cls-3" x="51.66" y="165.41" width="100" height="100"/><rect class="cls-3" x="151.66" y="165.41" width="100" height="100"/><rect class="cls-3" x="251.66" y="165.41" width="100" height="100"/><rect class="cls-3" x="351.66" y="165.41" width="100" height="100"/><rect class="cls-3" x="451.66" y="165.41" width="100" height="100"/><rect class="cls-3" x="551.66" y="165.41" width="100" height="100"/><rect class="cls-3" x="51.66" y="65.41" width="100" height="100"/><rect class="cls-3" x="151.66" y="65.41" width="100" height="100"/><rect class="cls-3" x="251.66" y="65.41" width="100" height="100"/><rect class="cls-3" x="351.66" y="65.41" width="100" height="100"/><rect class="cls-3" x="451.66" y="65.41" width="100" height="100"/><rect class="cls-3" x="551.66" y="65.41" width="100" height="100"/><rect class="cls-4" x="51.66" y="365.41" width="100" height="100"/><polyline class="cls-1" points="51.66 372.91 51.66 365.41 59.16 365.41"/><line class="cls-2" x1="76.16" y1="365.41" x2="135.66" y2="365.41"/><polyline class="cls-1" points="144.16 365.41 151.66 365.41 151.66 372.91"/><line class="cls-2" x1="151.66" y1="389.91" x2="151.66" y2="449.41"/><polyline class="cls-1" points="151.66 457.91 151.66 465.41 144.16 465.41"/><line class="cls-2" x1="127.16" y1="465.41" x2="67.66" y2="465.41"/><polyline class="cls-1" points="59.16 465.41 51.66 465.41 51.66 457.91"/><line class="cls-2" x1="51.66" y1="440.91" x2="51.66" y2="381.41"/><rect class="cls-4" x="151.66" y="365.41" width="100" height="100"/><polyline class="cls-1" points="151.66 372.91 151.66 365.41 159.16 365.41"/><line class="cls-2" x1="176.16" y1="365.41" x2="235.66" y2="365.41"/><polyline class="cls-1" points="244.16 365.41 251.66 365.41 251.66 372.91"/><line class="cls-2" x1="251.66" y1="389.91" x2="251.66" y2="449.41"/><polyline class="cls-1" points="251.66 457.91 251.66 465.41 244.16 465.41"/><line class="cls-2" x1="227.16" y1="465.41" x2="167.66" y2="465.41"/><polyline class="cls-1" points="159.16 465.41 151.66 465.41 151.66 457.91"/><line class="cls-2" x1="151.66" y1="440.91" x2="151.66" y2="381.41"/><rect class="cls-4" x="251.66" y="365.41" width="100" height="100"/><polyline class="cls-1" points="251.66 372.91 251.66 365.41 259.16 365.41"/><line class="cls-2" x1="276.16" y1="365.41" x2="335.66" y2="365.41"/><polyline class="cls-1" points="344.16 365.41 351.66 365.41 351.66 372.91"/><line class="cls-2" x1="351.66" y1="389.91" x2="351.66" y2="449.41"/><polyline class="cls-1" points="351.66 457.91 351.66 465.41 344.16 465.41"/><line class="cls-2" x1="327.16" y1="465.41" x2="267.66" y2="465.41"/><polyline class="cls-1" points="259.16 465.41 251.66 465.41 251.66 457.91"/><line class="cls-2" x1="251.66" y1="440.91" x2="251.66" y2="381.41"/><rect class="cls-4" x="351.66" y="365.41" width="100" height="100"/><polyline class="cls-1" points="351.66 372.91 351.66 365.41 359.16 365.41"/><line class="cls-2" x1="376.16" y1="365.41" x2="435.66" y2="365.41"/><polyline class="cls-1" points="444.16 365.41 451.66 365.41 451.66 372.91"/><line class="cls-2" x1="451.66" y1="389.91" x2="451.66" y2="449.41"/><polyline class="cls-1" points="451.66 457.91 451.66 465.41 444.16 465.41"/><line class="cls-2" x1="427.16" y1="465.41" x2="367.66" y2="465.41"/><polyline class="cls-1" points="359.16 465.41 351.66 465.41 351.66 457.91"/><line class="cls-2" x1="351.66" y1="440.91" x2="351.66" y2="381.41"/><rect class="cls-4" x="451.66" y="365.41" width="100" height="100"/><polyline class="cls-1" points="451.66 372.91 451.66 365.41 459.16 365.41"/><line class="cls-2" x1="476.16" y1="365.41" x2="535.66" y2="365.41"/><polyline class="cls-1" points="544.16 365.41 551.66 365.41 551.66 372.91"/><line class="cls-2" x1="551.66" y1="389.91" x2="551.66" y2="449.41"/><polyline class="cls-1" points="551.66 457.91 551.66 465.41 544.16 465.41"/><line class="cls-2" x1="527.16" y1="465.41" x2="467.66" y2="465.41"/><polyline class="cls-1" points="459.16 465.41 451.66 465.41 451.66 457.91"/><line class="cls-2" x1="451.66" y1="440.91" x2="451.66" y2="381.41"/><rect class="cls-4" x="551.66" y="365.41" width="100" height="100"/><polyline class="cls-1" points="551.66 372.91 551.66 365.41 559.16 365.41"/><line class="cls-2" x1="576.16" y1="365.41" x2="635.66" y2="365.41"/><polyline class="cls-1" points="644.16 365.41 651.66 365.41 651.66 372.91"/><line class="cls-2" x1="651.66" y1="389.91" x2="651.66" y2="449.41"/><polyline class="cls-1" points="651.66 457.91 651.66 465.41 644.16 465.41"/><line class="cls-2" x1="627.16" y1="465.41" x2="567.66" y2="465.41"/><polyline class="cls-1" points="559.16 465.41 551.66 465.41 551.66 457.91"/><line class="cls-2" x1="551.66" y1="440.91" x2="551.66" y2="381.41"/><rect class="cls-3" x="51.66" y="265.41" width="100" height="100"/><rect class="cls-3" x="151.66" y="265.41" width="100" height="100"/><rect class="cls-3" x="251.66" y="265.41" width="100" height="100"/><rect class="cls-3" x="351.66" y="265.41" width="100" height="100"/><rect class="cls-3" x="451.66" y="265.41" width="100" height="100"/><rect class="cls-3" x="551.66" y="265.41" width="100" height="100"/><path d="m112.36,38.25l-3.75-10.95h-14.05l-3.85,10.95h-4.95L98.76,1.8h6l12.8,36.45h-5.2Zm-10.65-31.45l-6,16.6h11.6l-5.6-16.6Z"/><path d="m204.51,38.25h-16.45V1.8h14.8c6.9,0,10.8,3.95,10.8,9.25,0,3.7-1.75,6.4-5.05,7.95,4.65,1.8,6.65,4.45,6.65,8.85,0,6-4.2,10.4-10.75,10.4Zm-2.8-32.35h-9v11.6h9c5.15,0,7.3-2.1,7.3-5.8s-2.15-5.8-7.3-5.8Zm2.35,15.7h-11.35v12.55h11.35c4.4,0,6.55-2.75,6.55-6.25s-2.15-6.3-6.55-6.3Z"/><path d="m401.26,38.25h-14.05V1.8h14.05c9.25,0,14.85,6.9,14.85,18.2s-5.65,18.25-14.85,18.25Zm-.8-32.35h-8.6v28.25h8.6c7.2,0,11-4.9,11-14.1s-3.8-14.15-11-14.15Z"/><path d="m488.58,38.25V1.8h25.25v4.1h-20.6v11.65h19.85v4.1h-19.85v12.5h21.5v4.1h-26.15Z"/><path d="m594.08,5.9v11.65h17.4v4.1h-17.4v16.6h-4.65V1.8h24.45v4.1h-19.8Z"/><path d="m20.1,133.14v-25.25h-7.85v-3.15c6.8-.85,7.8-1.6,9.35-7.05h2.9v35.45h-4.4Z"/><path d="m17,218.79l-5,2.7c-4.35,2.55-5.95,4.4-6.4,7.3h18.65v4.35H.65c.4-7.8,2.55-11.15,9.95-15.35l4.6-2.6c3.15-1.8,4.8-4.2,4.8-7,0-3.8-3-6.65-7-6.65-4.35,0-6.8,2.5-7.15,8.45H1.45c.25-8.6,4.45-12.3,11.7-12.3,6.7,0,11.35,4.4,11.35,10.4,0,4.35-2.55,8.05-7.5,10.7Z"/><path d="m12.5,333.51c-7.25,0-11.15-3.55-11.7-11.45h4.4c.3,5.15,2.65,7.55,7.45,7.55s7.35-2.65,7.35-7.1c0-3.95-2.5-6.25-7.35-6.25h-2.4v-3.7c7.05,0,8.7-1.55,8.7-5.35s-2.35-6.05-6.25-6.05c-4.5,0-6.65,2.35-6.75,7.6H1.55c.15-7.55,3.95-11.45,11.1-11.45,6.75,0,10.8,3.65,10.8,9.75,0,3.55-1.65,5.85-4.95,7.15,4.25,1.45,6,3.95,6,8.25,0,6.7-4.7,11.05-12,11.05Z"/><path d="m12.25,434.66l-12.25-8.95,2-2.7,8.55,6.2v-33.05h3.4v33.05l8.55-6.2,2,2.7-12.25,8.95Z"/><path d="m302.39,38.25c-10.7,0-16.45-8.05-16.45-18.7s5.6-19.55,16.65-19.55c8,0,12.6,4.2,14.05,12.2h-4.75c-1.15-5.55-4.15-8.1-9.85-8.1-7.05,0-11.45,6.05-11.45,15.4s4.6,14.65,11.85,14.65c6.15,0,9.05-3.2,10.15-10.1h4.8c-1.1,9.5-6.1,14.2-15,14.2Z"/></g></svg>